<?xml version="1.0" encoding="UTF-8"?>
<!DOCTYPE svg PUBLIC "-//W3C//DTD SVG 1.1//EN" "http://www.w3.org/Graphics/SVG/1.1/DTD/svg11.dtd">
<!-- Creator: CorelDRAW X7 -->
<svg xmlns="http://www.w3.org/2000/svg" xml:space="preserve" width="210mm" height="297mm" version="1.1" style="shape-rendering:geometricPrecision; text-rendering:geometricPrecision; image-rendering:optimizeQuality; fill-rule:evenodd; clip-rule:evenodd"
viewBox="0 0 21000 29700"
 xmlns:xlink="http://www.w3.org/1999/xlink">
 <defs>
  <style type="text/css">
   <![CDATA[
    .str0 {stroke:black;stroke-width:20}
    .fil1 {fill:none}
    .fil3 {fill:#292929}
    .fil6 {fill:#333333}
    .fil4 {fill:#64443E}
    .fil5 {fill:#B64836}
    .fil0 {fill:#C11A1E}
    .fil2 {fill:#DC4D47}
   ]]>
  </style>
 </defs>
 <g id="Слой_x0020_1">
  <metadata id="CorelCorpID_0Corel-Layer"/>
  <path class="fil0" d="M2812 9098c91,-1149 1097,-2010 2247,-1923 1155,88 2019,1096 1930,2250 -89,1151 -1096,2018 -2248,1927 -1156,-90 -2021,-1097 -1929,-2254zm3806 -2181c-757,-16 -1527,1 -2285,-1 -379,-2 -764,-8 -1142,-3 -390,5 -633,242 -640,635 -12,756 2,1524 1,2282 -1,380 -5,761 -3,1141 2,391 239,635 633,642 754,14 1525,-1 2282,0 380,0 761,6 1141,3 392,-4 637,-239 644,-636 13,-755 -1,-1524 0,-2281 0,-381 3,-762 2,-1142 -1,-392 -241,-632 -633,-640z"/>
  <path class="fil1" d="M3964 7454c-6,1 -18,7 -23,11 13,47 54,85 69,134l-106 61 -69 -123c-78,25 -302,218 -362,282 -97,96 -342,316 -370,438 -6,43 -64,188 -84,236 -56,137 -97,281 -122,428 -30,76 -37,204 -53,257 -7,56 10,72 16,146 -2,138 44,352 81,483 20,71 29,137 54,206 11,28 88,205 103,223 7,31 23,39 61,101 11,8 128,162 148,187 44,55 97,119 150,171 90,91 264,243 375,298 29,34 67,61 96,75 39,5 159,60 205,79 67,28 139,52 209,72 183,52 306,52 486,78 34,11 104,11 156,-3 212,0 733,-103 889,-232 59,-28 75,-39 98,-70 95,-55 289,-202 359,-286 -7,-34 -1179,-1196 -1312,-1327 -63,13 -84,54 -160,42 -59,-10 -99,-46 -122,-97 -61,-134 37,-215 158,-235l6 -4 1 -1428 -64 -6 3 -409 -30 -8c-150,3 -311,33 -455,72 -66,17 -135,39 -198,66"/>
  <path class="fil2" d="M4810 7234l30 8 -3 409 64 6 -1 1428 -6 4 6 -4 1742 -478 -1624 772c133,131 1305,1293 1312,1327 120,-79 332,-419 399,-556 135,-277 174,-494 202,-799l28 -42 -12 -120c-8,-342 -127,-670 -300,-964 -87,-148 -173,-249 -288,-375 -62,-68 -295,-291 -376,-311 -2,-24 -99,-52 -105,-79 -72,-25 -173,-66 -250,-95 -80,-31 -168,-57 -252,-78 -114,-27 -463,-78 -566,-53z"/>
  <path class="fil3" d="M6612 6917c392,8 631,248 633,640 1,380 -3,761 -3,1142 -1,757 13,1526 0,2281 -6,397 -251,632 -643,636 -379,3 -760,-3 -1139,-3 -756,-1 -1526,14 -2279,0 -394,-7 -630,-251 -632,-642 -2,-380 2,-761 2,-1141 2,-758 -12,-1526 0,-2282 7,-393 249,-630 639,-635 378,-5 762,1 1140,3 757,2 1526,-15 2282,1zm39 -59c-401,-20 -836,-5 -1241,-6 -415,0 -830,0 -1245,0 -251,-1 -1028,-31 -1220,30 -155,50 -299,172 -377,314 -103,187 -78,397 -79,602 -4,831 -2,1662 -3,2493 0,465 -59,907 159,1165 131,155 255,228 761,237 408,19 852,1 1262,4 414,4 1520,1 1934,0 192,-6 407,-69 545,-226 137,-156 155,-254 171,-350 9,-412 20,-792 15,-1204 -6,-414 -6,-781 -9,-1197 -3,-337 -17,-855 -5,-1221 -7,-136 -56,-278 -172,-421 -173,-162 -253,-208 -496,-220z"/>
  <path class="fil3" d="M6330 10706c-70,84 -261,229 -355,283 -21,16 -66,44 -109,70 -149,76 -670,235 -882,235l-58 -1c-28,13 -62,1 -98,4 -180,-26 -303,-26 -486,-78 -70,-20 -142,-44 -209,-72 -65,-27 -262,-114 -308,-160 -109,-60 -278,-201 -368,-292 -53,-52 -106,-116 -150,-171 -20,-25 -122,-172 -133,-181 -34,-57 -59,-85 -81,-133 -36,-89 -64,-146 -83,-198 -26,-69 -49,-134 -69,-205 -37,-131 -73,-326 -71,-463l2 -54c-13,-23 -3,-35 -7,-86 -4,-54 21,-220 32,-283 25,-147 66,-291 122,-428 20,-48 52,-121 71,-170 29,-56 57,-96 87,-131 51,-116 205,-276 296,-373 60,-64 293,-245 360,-284 28,-20 82,-54 108,-70 70,-32 145,-63 216,-93 63,-27 132,-49 198,-66 144,-39 305,-69 455,-72 103,-25 452,26 566,53 84,21 172,47 252,78 77,29 147,67 227,101 37,24 71,36 128,73 80,53 314,243 376,311 115,126 201,227 288,375 173,294 276,632 284,974l5 85 -5 67c-28,305 -67,522 -202,799 -67,137 -279,477 -399,556zm-3518 -1608c-92,1157 773,2164 1929,2254 1152,91 2159,-776 2248,-1927 89,-1154 -775,-2162 -1930,-2250 -1150,-87 -2156,774 -2247,1923z"/>
  <path class="fil3" d="M4900 9085l-6 4c-121,20 -219,101 -158,235 23,51 63,87 122,97 76,12 97,-29 160,-42l1624 -772 -1742 478z"/>
  <path class="fil4" d="M6510 9262c29,28 58,20 98,19 37,-1 70,0 106,-1 59,-1 165,-2 222,4l-5 -85 -422 3 1 60z"/>
  <path class="fil5" d="M4926 11293l58 1c-39,-1 -11,1 -23,-13 3,-69 11,-362 -7,-407l-85 3c41,25 12,128 14,204 2,67 10,136 6,204l37 8z"/>
  <path class="fil4" d="M4828 11297c36,-3 70,9 98,-4l-37 -8c4,-68 -4,-137 -6,-204 -2,-76 27,-179 -14,-204l-35 0c3,72 10,375 -6,420z"/>
  <path class="fil5" d="M2872 9290l-2 54c5,-32 142,-19 199,-18 66,0 155,4 219,-2l2 -50c-86,5 -318,6 -409,-7l-9 23z"/>
  <path class="fil4" d="M3833 7535l71 125 106 -61c-21,-45 -61,-114 -69,-134 -33,20 -51,28 -108,70z"/>
  <path class="fil4" d="M3825 10987c18,19 83,58 105,70 22,-37 57,-86 76,-130l-102 -58c-25,34 -48,82 -79,118z"/>
  <path class="fil4" d="M3103 8299c35,17 90,53 132,73 20,-36 41,-74 59,-109l-117 -71c-37,36 -51,66 -74,107z"/>
  <path class="fil4" d="M3100 10224c6,19 23,44 41,71 9,13 12,21 24,41 34,-21 36,-22 70,-40 21,-12 40,-23 60,-38l-62 -105 -122 68 -11 3z"/>
  <path class="fil5" d="M5866 11059c42,-24 76,-46 106,-68 -34,-48 -48,-79 -78,-122l-105 61 77 129z"/>
  <path class="fil5" d="M5977 7535c-35,-28 -72,-40 -108,-60 -22,34 -50,90 -73,128l103 57c21,-32 57,-101 78,-125z"/>
  <path class="fil5" d="M6510 9262l2 59 404 -1 15 31 5 -67c-57,-6 -163,-5 -222,-4 -36,1 -69,0 -106,1 -40,1 -69,9 -98,-19z"/>
  <rect class="fil6 str0" x="4838" y="7228" width="105" height="423"/>
  <rect class="fil6 str0" x="2860" y="9192" width="428" height="132"/>
  <rect class="fil6 str0" x="6509" y="9202" width="424" height="116"/>
  <rect class="fil6 str0" x="4838" y="10877" width="116" height="416"/>
 </g>
</svg>
